<?xml version="1.0" standalone="no"?>
<!DOCTYPE svg PUBLIC "-//W3C//DTD SVG 20010904//EN"
 "http://www.w3.org/TR/2001/REC-SVG-20010904/DTD/svg10.dtd">
<svg version="1.0" xmlns="http://www.w3.org/2000/svg"
 width="319.000000pt" height="283.000000pt" viewBox="0 0 319.000000 283.000000"
 preserveAspectRatio="xMidYMid meet">

<g transform="translate(0.000000,283.000000) scale(0.100000,-0.100000)"
fill="#000000" stroke="none">
<path d="M1531 1732 c-49 -5 -62 -23 -60 -82 2 -48 3 -49 20 -34 10 9 16 20
14 25 -3 4 0 11 6 15 6 3 15 1 19 -6 10 -17 33 -2 26 17 -5 11 -2 13 10 9 8
-3 18 -6 20 -6 2 0 4 -7 4 -15 0 -17 26 -20 35 -4 10 15 -22 76 -42 80 -10 2
-33 3 -52 1z"/>
<path d="M1514 1606 c-3 -14 -12 -27 -20 -30 -28 -11 -9 -66 22 -66 7 0 19 14
28 31 14 28 14 33 0 46 -8 9 -13 22 -10 29 3 8 1 14 -4 14 -5 0 -12 -11 -16
-24z"/>
<path d="M1666 1599 c-27 -32 -28 -33 -31 -92 -1 -24 2 -36 9 -34 6 2 10 19 8
38 -3 40 28 95 61 109 22 9 22 9 0 9 -12 1 -32 -12 -47 -30z"/>
<path d="M1335 1581 c-51 -23 -67 -42 -105 -122 l-31 -66 -64 -18 c-73 -19
-108 -43 -130 -85 -20 -39 -20 -40 23 -40 45 -1 103 -49 127 -107 20 -47 53
-295 53 -397 0 -43 3 -116 7 -162 l7 -84 -59 0 c-50 0 -63 -4 -82 -24 -20 -21
-22 -32 -19 -100 l3 -76 -85 0 -85 0 3 102 3 102 46 50 46 51 -67 3 -66 3 30
44 c38 55 40 98 4 121 -33 22 -74 9 -92 -30 -13 -25 -11 -32 17 -78 17 -27 31
-51 31 -54 0 -2 -27 -4 -59 -4 -58 0 -60 -1 -101 -47 -32 -37 -41 -54 -38 -75
3 -19 0 -28 -9 -28 -16 0 -17 52 -1 68 16 16 1 29 -20 15 -10 -6 -16 -20 -14
-32 3 -16 -3 -24 -17 -28 -12 -3 -21 -9 -21 -14 0 -5 -11 -9 -25 -9 -21 0 -25
5 -25 28 0 15 5 33 12 40 16 16 1 29 -20 16 -9 -6 -17 -22 -17 -35 0 -18 -6
-25 -25 -27 -14 -2 -37 -15 -52 -30 -25 -23 -28 -33 -28 -89 l0 -63 50 0 49 0
3 63 3 62 78 3 77 3 0 -55 c0 -93 -24 -86 289 -85 152 1 269 3 261 5 -23 7
-15 140 12 176 10 16 23 28 27 28 4 0 17 -14 30 -31 20 -27 21 -32 8 -42 -10
-8 -17 -34 -19 -75 -3 -57 -1 -62 17 -61 11 0 14 3 8 6 -18 7 -16 43 2 43 10
0 15 10 15 29 0 26 14 41 41 41 5 0 9 -13 9 -30 0 -20 5 -30 15 -30 11 0 15
12 15 50 0 29 5 50 11 50 15 0 36 23 41 46 2 10 7 18 11 17 4 -2 16 -3 27 -3
19 0 20 -6 18 -107 0 -60 -3 -92 -5 -73 -3 19 -11 39 -19 43 -8 4 -14 20 -14
35 0 15 -5 34 -10 42 -7 11 -10 4 -10 -27 0 -24 5 -43 11 -43 15 0 7 -72 -8
-78 -8 -2 -13 6 -13 23 0 34 -21 28 -31 -8 l-7 -27 296 1 c163 1 287 4 275 6
-13 3 -23 11 -23 19 0 8 -4 14 -10 14 -5 0 -10 9 -10 21 0 11 -4 18 -9 14 -6
-3 -14 2 -19 11 -5 9 -18 14 -28 12 -14 -2 -20 -14 -24 -48 -5 -42 -6 -43 -18
-23 -7 13 -12 61 -12 127 l0 105 -42 3 -43 3 -3 61 -3 61 -54 -2 -55 -2 0 74
0 73 -40 0 c-36 0 -40 3 -40 25 0 24 -2 25 -65 25 -63 0 -65 -1 -65 -25 0 -16
-6 -25 -15 -25 -13 0 -15 -28 -15 -195 l0 -195 -25 0 -25 0 0 334 c0 329 0
334 20 329 18 -5 19 -2 14 40 -8 53 8 106 39 135 l23 22 19 -33 20 -32 3 48
c3 45 6 49 58 84 30 20 54 39 54 42 0 3 -7 14 -15 25 -13 18 -15 18 -43 -3
-17 -12 -33 -21 -37 -21 -4 0 -18 -9 -32 -20 -14 -11 -30 -20 -35 -20 -11 0 1
46 24 92 14 25 18 52 16 90 -3 51 -4 53 -33 56 -16 1 -48 -6 -70 -17z m-25
-256 c0 -21 7 -41 20 -53 19 -18 19 -21 5 -55 -8 -21 -21 -37 -28 -37 -18 0
-147 63 -147 73 0 21 49 72 85 88 57 26 65 24 65 -16z m-429 -565 c25 -14 25
-56 -1 -70 -45 -24 -86 44 -42 69 21 13 20 13 43 1z m739 -235 c0 -113 2 -135
15 -135 8 0 15 -7 15 -15 0 -8 7 -15 15 -15 11 0 15 11 15 39 0 30 6 44 22 55
32 23 48 4 48 -59 0 -44 3 -54 20 -58 11 -3 20 -12 20 -21 0 -12 -10 -16 -35
-16 -32 0 -40 7 -36 33 0 4 -4 7 -9 7 -5 0 -10 -9 -10 -20 0 -17 -7 -20 -48
-20 l-48 0 4 35 c4 32 2 35 -22 35 -26 0 -26 1 -26 70 0 68 -1 70 -25 70 -23
0 -25 4 -25 45 0 38 3 45 20 45 16 0 20 7 20 30 0 28 3 30 35 30 l35 0 0 -135z
m283 -205 c4 -15 0 -20 -14 -20 -12 0 -19 7 -19 20 0 11 6 20 14 20 7 0 16 -9
19 -20z"/>
<path d="M1725 1550 c-3 -11 -18 -29 -32 -40 -14 -11 -21 -20 -15 -20 12 0 62
57 62 71 0 16 -8 10 -15 -11z"/>
<path d="M1587 1403 c-10 -9 -9 -23 2 -23 5 0 11 7 15 15 5 15 -5 20 -17 8z"/>
<path d="M1493 1211 c-2 -45 2 -62 20 -84 20 -26 24 -27 42 -13 20 15 20 16
-15 81 -19 37 -37 68 -40 70 -3 2 -6 -23 -7 -54z"/>
<path d="M1553 1054 c-13 -20 -13 -29 -3 -54 7 -17 22 -42 32 -56 24 -30 39
-22 70 39 16 32 18 45 9 63 -16 35 -31 29 -24 -10 4 -28 1 -36 -16 -46 -17 -9
-26 -9 -37 1 -22 18 -18 58 8 68 l22 8 -23 6 c-16 4 -26 -1 -38 -19z"/>
<path d="M2172 738 l-2 -308 -45 0 -45 0 0 -65 c0 -49 -3 -65 -14 -65 -7 0
-16 9 -19 20 -3 11 -11 20 -17 20 -7 0 -10 -8 -7 -20 3 -10 0 -21 -7 -24 -6
-2 115 -5 269 -5 184 0 275 3 265 9 -12 8 -12 10 5 11 15 0 17 2 5 7 -48 22
-60 45 -60 113 0 53 -4 69 -20 84 -17 15 -20 31 -20 105 0 83 -1 87 -30 115
l-30 29 0 -67 c0 -55 3 -68 21 -80 19 -14 21 -23 17 -136 -2 -86 0 -121 8
-121 7 0 14 -13 16 -30 l5 -30 -134 0 -133 0 0 50 0 50 45 0 45 0 0 84 0 85
-27 3 c-28 3 -28 4 -28 73 0 164 -4 205 -20 205 -11 0 -15 12 -15 50 0 28 -4
50 -9 50 -6 0 -12 21 -14 48 -2 26 -4 -91 -5 -260z"/>
<path d="M2610 625 c0 -42 3 -55 15 -55 11 0 15 -11 15 -37 0 -43 13 -69 28
-59 14 9 22 -18 22 -75 0 -37 4 -49 15 -49 10 0 15 10 15 30 0 17 4 30 9 30
27 0 41 -15 41 -41 0 -17 6 -32 15 -35 8 -4 15 -12 15 -20 0 -8 7 -14 15 -14
8 0 15 5 15 10 0 6 -4 10 -10 10 -5 0 -10 25 -10 55 0 52 -1 55 -25 55 l-25 0
0 125 0 125 -75 0 -75 0 0 -55z"/>
<path d="M2317 562 c-10 -10 -17 -26 -17 -36 0 -20 26 -74 47 -98 15 -16 17
-16 33 5 28 36 48 81 42 97 -16 49 -74 66 -105 32z m73 -17 c15 -18 10 -45
-12 -59 -35 -22 -74 27 -48 59 16 19 44 19 60 0z"/>
<path d="M1980 500 c0 -40 4 -70 10 -70 6 0 10 30 10 70 0 40 -4 70 -10 70 -6
0 -10 -30 -10 -70z"/>
<path d="M1942 405 l1 -100 7 75 c3 41 3 86 -1 100 -4 14 -7 -20 -7 -75z"/>
<path d="M2626 444 c-3 -9 -6 -29 -6 -45 0 -19 -5 -29 -15 -29 -10 0 -15 -11
-15 -35 0 -24 5 -35 15 -35 10 0 15 10 15 33 0 19 3 36 6 40 6 6 15 87 9 87
-1 0 -6 -7 -9 -16z"/>
<path d="M2370 390 c0 -5 5 -10 11 -10 5 0 7 5 4 10 -3 6 -8 10 -11 10 -2 0
-4 -4 -4 -10z"/>
<path d="M2338 383 c7 -3 16 -2 19 1 4 3 -2 6 -13 5 -11 0 -14 -3 -6 -6z"/>
<path d="M2656 343 c-12 -12 -6 -43 9 -43 8 0 15 9 15 19 0 21 -13 34 -24 24z"/>
<path d="M1340 314 c0 -8 5 -12 10 -9 6 3 10 10 10 16 0 5 -4 9 -10 9 -5 0
-10 -7 -10 -16z"/>
<path d="M2710 315 c0 -8 5 -15 10 -15 6 0 10 7 10 15 0 8 -4 15 -10 15 -5 0
-10 -7 -10 -15z"/>
<path d="M358 303 c7 -3 16 -2 19 1 4 3 -2 6 -13 5 -11 0 -14 -3 -6 -6z"/>
</g>
</svg>
